<?xml version="1.0" encoding="UTF-8"?>
<svg version="1.1" xmlns="http://www.w3.org/2000/svg" width="1024" height="1024">
<path d="M0 0 C5.0363315 0.00020678 10.07265753 -0.00534065 15.10898638 -0.01005757 C24.94254777 -0.01830481 34.77610317 -0.02110968 44.60966773 -0.02166995 C52.61414499 -0.02214782 60.6186203 -0.02421601 68.62309694 -0.02737057 C91.39410802 -0.03616 114.16511442 -0.04079249 136.9361272 -0.0400401 C138.15942485 -0.04000014 139.3827225 -0.03996019 140.64308977 -0.03991902 C142.48031557 -0.0398577 142.48031557 -0.0398577 144.35465704 -0.03979514 C164.19406932 -0.03938888 184.0334626 -0.04895791 203.87286939 -0.06305739 C224.31912625 -0.07747177 244.76537388 -0.08432484 265.21163595 -0.08346361 C276.66048654 -0.08313344 288.1093172 -0.08580087 299.55816317 -0.09664166 C309.30560207 -0.10581351 319.053012 -0.1078676 328.80045338 -0.10113224 C333.75829021 -0.09790074 338.71607167 -0.09768585 343.67390299 -0.10648549 C394.43452269 -0.1906989 444.91028778 1.10043461 490.35402727 26.09557903 C492.31588813 27.15484594 494.29919611 28.15862249 496.29836321 29.14538372 C496.29836321 29.80538372 496.29836321 30.46538372 496.29836321 31.14538372 C497.12980852 31.26913372 497.12980852 31.26913372 497.97805071 31.39538372 C508.4326704 34.77465473 521.22278462 48.6874901 528.29836321 57.14538372 C528.29836321 57.80538372 528.29836321 58.46538372 528.29836321 59.14538372 C528.95836321 59.14538372 529.61836321 59.14538372 530.29836321 59.14538372 C531.93537024 61.00451251 533.43653687 62.85807907 534.92336321 64.83288372 C535.3692177 65.42085735 535.81507219 66.00883098 536.27443743 66.614622 C542.56074 75.03301577 547.78886466 84.05103534 552.79836321 93.27038372 C553.14914934 93.91024211 553.49993547 94.55010051 553.86135149 95.20934856 C555.38157054 98.06502982 556.29836321 99.8598654 556.29836321 103.14538372 C556.95836321 103.14538372 557.61836321 103.14538372 558.29836321 103.14538372 C560.442485 107.72600753 561.7697305 111.97030221 562.77101946 116.91882122 C563.30322018 119.41475872 563.30322018 119.41475872 564.73586321 122.70788372 C568.86690569 133.40728373 569.73860275 145.67898779 571.36086321 156.95788372 C571.52320452 158.05125041 571.68554583 159.14461711 571.85280657 160.27111614 C575.25128414 184.70598 575.59672438 209.14634668 575.55981255 233.76049352 C575.55521363 238.3151011 575.56230839 242.86969453 575.56777239 247.42429912 C575.57659374 256.31278868 575.57477604 265.20124416 575.56894711 274.08973496 C575.56439689 281.33413841 575.5638321 288.57853242 575.56599474 295.82293689 C575.56630121 296.86121213 575.56660767 297.89948736 575.56692342 298.96922548 C575.56756301 301.07987189 575.56821144 303.19051829 575.56886861 305.30116469 C575.57455194 325.0278729 575.56804804 344.75456244 575.55726787 364.48126758 C575.54835676 381.30608326 575.54986814 398.13087128 575.5591054 414.95568645 C575.56988272 434.59415092 575.57397931 454.23259902 575.56788087 473.87106603 C575.56724394 475.97836486 575.56661519 478.08566369 575.56599474 480.19296253 C575.56568619 481.22916843 575.56537764 482.26537433 575.56505974 483.33298041 C575.5633533 490.53668193 575.56624333 497.74037272 575.57095385 504.9440726 C575.66562711 664.12431908 575.66562711 664.12431908 548.29836321 712.14538372 C547.88159319 712.88184124 547.46482317 713.61829875 547.03542376 714.37707317 C546.12956957 715.97022308 545.21520956 717.55853426 544.29836321 719.14538372 C543.63836321 719.14538372 542.97836321 719.14538372 542.29836321 719.14538372 C542.15398821 719.76413372 542.00961321 720.38288372 541.86086321 721.02038372 C541.29836321 723.14538372 541.29836321 723.14538372 540.29836321 725.14538372 C539.63836321 725.14538372 538.97836321 725.14538372 538.29836321 725.14538372 C538.00961321 725.90850872 537.72086321 726.67163372 537.42336321 727.45788372 C536.29836321 730.14538372 536.29836321 730.14538372 534.29836321 733.14538372 C533.63836321 733.14538372 532.97836321 733.14538372 532.29836321 733.14538372 C532.29836321 733.80538372 532.29836321 734.46538372 532.29836321 735.14538372 C531.63836321 735.14538372 530.97836321 735.14538372 530.29836321 735.14538372 C530.02612932 735.74141399 529.75389544 736.33744426 529.47341204 736.95153606 C516.32156349 761.5063898 479.62374272 777.42327286 454.52516985 785.13195598 C441.03682632 789.07613179 427.44006929 791.28199063 413.48586321 792.83288372 C412.42117815 792.9523637 411.35649309 793.07184368 410.25954485 793.19494426 C386.50417047 795.62701276 362.59151078 795.29686646 338.74431467 795.29076743 C333.69431463 795.29056097 328.64432007 795.29610527 323.59432268 795.300825 C313.72973938 795.30907924 303.86516207 795.31187745 294.0005756 795.31243738 C285.97078353 795.31291499 277.94099341 795.31498189 269.91120195 795.318138 C247.07303705 795.32692996 224.23487682 795.33155962 201.39671022 795.33080753 C200.16929477 795.33076757 198.94187932 795.33072762 197.67726946 795.33068645 C196.44833064 795.33064557 195.21939183 795.33060469 193.95321244 795.33056257 C174.05224103 795.33015641 154.15128857 795.33972215 134.25032264 795.35382482 C113.74536845 795.3682392 93.24042347 795.37509224 72.7354641 795.37423104 C61.25193114 795.37390084 49.76841805 795.37656987 38.2848897 795.38740909 C28.50629421 795.396581 18.7277276 795.39863505 8.94912964 795.39189967 C3.97510465 795.38866797 -0.99886515 795.38845397 -5.97288465 795.39725292 C-28.30562387 795.43430948 -50.43592171 794.98362404 -72.70163679 793.14538372 C-73.57671227 793.07480735 -74.45178776 793.00423098 -75.35338068 792.93151593 C-109.09313899 790.15360336 -142.62257553 778.61890578 -169.70163679 758.14538372 C-170.59624617 757.47378215 -171.49085554 756.80218059 -172.41257429 756.11022747 C-185.18266701 746.09263274 -196.29030774 734.33550398 -205.70163679 721.14538372 C-206.50601179 720.08577434 -206.50601179 720.08577434 -207.32663679 719.00475872 C-213.02099778 711.14406474 -216.71189698 701.94576543 -220.70163679 693.14538372 C-221.44993757 691.52889934 -221.44993757 691.52889934 -222.21335554 689.87975872 C-238.66342248 652.72440248 -236.85902014 610.27610513 -236.83236146 570.57326484 C-236.83007382 565.52135506 -236.83360353 560.46944857 -236.83634138 555.41753948 C-236.84076252 545.55129309 -236.83983894 535.68505435 -236.83692874 525.81880767 C-236.83466013 517.79181608 -236.83436847 509.76482663 -236.83545256 501.73783481 C-236.83560579 500.59055479 -236.83575902 499.44327477 -236.8359169 498.26122869 C-236.83623666 495.92973253 -236.83656087 493.59823636 -236.83688949 491.2667402 C-236.83973361 469.45997711 -236.83647412 447.65321825 -236.83108912 425.84645586 C-236.82662266 407.18234311 -236.8273978 388.51823659 -236.83200788 369.85412395 C-236.83737359 348.12102566 -236.83945839 326.38793105 -236.83639562 304.65483218 C-236.83607711 302.33213759 -236.83576274 300.00944299 -236.83545256 297.68674839 C-236.83522114 295.97304013 -236.83522114 295.97304013 -236.83498506 294.2247115 C-236.83412584 286.21867472 -236.83556991 278.2126403 -236.83793211 270.20660388 C-236.84075256 260.43366971 -236.83994488 250.66074356 -236.83465137 240.8878103 C-236.83204435 235.91264309 -236.83095767 230.93748919 -236.83430052 225.96232212 C-236.86679945 172.83406557 -234.70033852 124.26076516 -207.70163679 77.14538372 C-207.04163679 77.14538372 -206.38163679 77.14538372 -205.70163679 77.14538372 C-205.04163679 75.16538372 -204.38163679 73.18538372 -203.70163679 71.14538372 C-203.04163679 71.14538372 -202.38163679 71.14538372 -201.70163679 71.14538372 C-201.41288679 70.38225872 -201.12413679 69.61913372 -200.82663679 68.83288372 C-199.70163679 66.14538372 -199.70163679 66.14538372 -197.70163679 63.14538372 C-197.04163679 63.14538372 -196.38163679 63.14538372 -195.70163679 63.14538372 C-195.36132429 62.06257122 -195.36132429 62.06257122 -195.01413679 60.95788372 C-193.40900156 57.51830822 -191.48061076 55.74312025 -188.70163679 53.14538372 C-186.62214306 51.00601973 -184.54482345 48.86462652 -182.47116804 46.71960247 C-180.70163679 45.14538372 -180.70163679 45.14538372 -178.70163679 45.14538372 C-178.70163679 44.48538372 -178.70163679 43.82538372 -178.70163679 43.14538372 C-176.82054368 41.51308034 -174.94265595 40.00862026 -172.95163679 38.52038372 C-172.35673445 38.07307903 -171.7618321 37.62577434 -171.14890242 37.16491497 C-169.34003479 35.81547281 -167.52178675 34.4795516 -165.70163679 33.14538372 C-164.77866804 32.45702434 -163.85569929 31.76866497 -162.90476179 31.05944622 C-137.67813359 13.19666035 -107.02302787 5.74926416 -76.76413679 2.39538372 C-75.73175886 2.27977092 -74.69938093 2.16415813 -73.63571882 2.04504192 C-49.19366479 -0.40213652 -24.53224303 -0.0063036 0 0 Z " fill="#0A3C43" transform="translate(342.70163679122925,117.85461628437042)"/>
<path d="M0 0 C0.92100998 -0.00832352 1.84201996 -0.01664703 2.79093933 -0.02522278 C5.83243049 -0.04929482 8.87370691 -0.05809261 11.9152832 -0.06469727 C14.03652509 -0.07366746 16.15776634 -0.08278938 18.27900696 -0.09205627 C22.72671036 -0.10854247 27.17433854 -0.11624542 31.62207031 -0.11914062 C37.30360994 -0.12451636 42.98443588 -0.16216508 48.66577435 -0.20788479 C53.04887937 -0.2377259 57.43181423 -0.24486576 61.81501198 -0.24586678 C63.90846835 -0.25005696 66.00192579 -0.26244266 68.0952816 -0.28338432 C84.80677023 -0.43722217 93.40217533 1.50966429 105.48110199 13.32062149 C107.44836531 15.28126362 109.40513055 17.25196026 111.3605957 19.22436523 C112.74607314 20.60646808 114.13229153 21.98782853 115.51921082 23.3684845 C118.41260196 26.25453481 121.29683572 29.14935417 124.17480469 32.05078125 C127.84730405 35.75176537 131.54180006 39.42984255 135.24348927 43.10160351 C138.10690663 45.9468729 140.95820998 48.8040438 143.80609703 51.66485023 C145.16308354 53.02515 146.52373273 54.38180697 147.88822365 55.73457909 C159.27650991 67.04642836 165.24112457 74.43157926 165.44436073 90.92715073 C165.44775443 93.94053573 165.42886636 96.95324858 165.4074707 99.96655273 C165.40830049 102.08304466 165.410764 104.19953651 165.41477966 106.31602478 C165.41762897 110.73822572 165.40301982 115.15991776 165.37548828 119.58203125 C165.34138659 125.23324185 165.34743925 130.88354438 165.36615086 136.53479862 C165.37674853 140.90074656 165.36775817 145.26648534 165.35276604 149.63241386 C165.34760552 151.71549291 165.34803999 153.798594 165.35431099 155.88167 C165.35979752 158.79853996 165.33927887 161.71413495 165.31201172 164.63085938 C165.32180054 165.90526382 165.32180054 165.90526382 165.33178711 167.20541382 C165.17890311 176.88562675 161.36952252 183.48552122 154.57641602 190.13964844 C153.96445374 190.75876602 153.35249146 191.37788361 152.72198486 192.01576233 C150.71655484 194.0379587 148.69370156 196.04159978 146.66918945 198.04467773 C145.25837186 199.45632506 143.84837111 200.86878917 142.43914795 202.2820282 C139.49150081 205.23252506 136.53531243 208.17409921 133.57250977 211.109375 C129.78675957 214.86102942 126.02142025 218.63241377 122.26205826 222.41048908 C119.35603224 225.32711293 116.44029027 228.233864 113.52147675 231.13768578 C112.12971 232.52429182 110.74073278 233.9137039 109.35468292 235.30602455 C107.41216777 237.25402592 105.45712741 239.18854617 103.49829102 241.12011719 C102.93489014 241.69004395 102.37148926 242.2599707 101.79101562 242.84716797 C94.51160867 249.95621873 87.14567691 252.44830665 77.05957031 252.49926758 C75.72238449 252.51153381 75.72238449 252.51153381 74.35818481 252.52404785 C71.40326607 252.54888963 68.44839546 252.5654183 65.4934082 252.57983398 C64.48261263 252.58515766 63.47181705 252.59048134 62.43039131 252.59596634 C57.07616052 252.62269765 51.72195299 252.64206923 46.36767578 252.65649414 C41.9455894 252.6698127 37.52396671 252.69762717 33.10205078 252.73852539 C27.75578299 252.78797075 22.40993462 252.8126304 17.06344795 252.81972122 C15.0313821 252.82641488 12.99932491 252.8415875 10.96739006 252.86561203 C-4.30016248 253.03577089 -12.80067322 251.7817344 -24.07641602 241.06665039 C-26.68970681 238.49740651 -29.26435098 235.89121227 -31.83862305 233.28295898 C-33.22634617 231.89352199 -34.61496266 230.50497675 -36.00442505 229.11727905 C-38.9017222 226.21833541 -41.79035772 223.31112005 -44.67260742 220.3972168 C-48.3575209 216.67255456 -52.05991321 212.96587894 -55.76849174 209.2647953 C-58.63285961 206.40350365 -61.48955826 203.53465582 -64.34384537 200.663311 C-65.70621827 199.29393555 -67.07052118 197.9264773 -68.4368248 196.56102371 C-70.34638605 194.64965476 -72.24582053 192.72875615 -74.14282227 190.80493164 C-74.70182724 190.24885727 -75.26083221 189.6927829 -75.83677673 189.11985779 C-81.42173086 183.4132699 -85.30927864 177.44272717 -85.37533569 169.24813843 C-85.38393616 168.44933258 -85.39253662 167.65052673 -85.40139771 166.82751465 C-85.40565765 165.9599353 -85.4099176 165.09235596 -85.41430664 164.19848633 C-85.42657288 162.8171904 -85.42657288 162.8171904 -85.43908691 161.4079895 C-85.46389306 158.36111086 -85.48044664 155.31427873 -85.49487305 152.26733398 C-85.50019672 151.2243578 -85.5055204 150.18138161 -85.5110054 149.10680008 C-85.53771893 143.58398423 -85.55709777 138.06119082 -85.5715332 132.53833008 C-85.5848597 127.97757861 -85.61269166 123.4172759 -85.65356445 118.85668945 C-85.70299498 113.3406907 -85.72766729 107.82509825 -85.73476028 102.30888748 C-85.74145494 100.21262806 -85.75663015 98.11637707 -85.78065109 96.0202446 C-85.92535066 82.62700796 -85.82685911 73.28840049 -76.46020508 62.9934082 C-75.02085039 61.56149054 -73.56824581 60.1427967 -72.10424805 58.73608398 C-71.32886688 57.97014923 -70.55348572 57.20421448 -69.75460815 56.41506958 C-67.29687327 53.99162824 -64.82258217 51.58600891 -62.34643555 49.18139648 C-59.88101027 46.76623669 -57.41921649 44.34746237 -54.95968628 41.92630005 C-53.43564523 40.42828398 -51.90767504 38.9342504 -50.37503052 37.44503784 C-46.32069035 33.48406354 -42.47360221 29.42731524 -38.79290771 25.11576843 C-16.99076245 0.01307119 -16.99076245 0.01307119 0 0 Z " fill="#EB3D29" transform="translate(653.221435546875,539.693603515625)"/>
<path d="M0 0 C18.36528818 15.99784697 32.80998849 34.33844719 45.375 55.1875 C46.05091187 56.29025269 46.05091187 56.29025269 46.74047852 57.4152832 C47.82534528 59.25182143 48.79775919 61.15382349 49.75 63.0625 C48.50600097 66.7944971 47.5264468 67.03641974 44.1484375 68.8828125 C42.71105225 69.67945313 42.71105225 69.67945313 41.24462891 70.4921875 C40.21515137 71.05164063 39.18567383 71.61109375 38.125 72.1875 C36.01475012 73.35519115 33.90537548 74.52446541 31.796875 75.6953125 C30.76240234 76.26797852 29.72792969 76.84064453 28.66210938 77.43066406 C24.85228352 79.56554636 21.10607924 81.79361377 17.375 84.0625 C16.20315272 84.7669732 15.03127917 85.4714027 13.859375 86.17578125 C11.9008418 87.3641877 9.9514264 88.567883 8.015625 89.79296875 C7.22671875 90.27378906 6.4378125 90.75460937 5.625 91.25 C4.98304688 91.65605469 4.34109375 92.06210937 3.6796875 92.48046875 C1.75 93.0625 1.75 93.0625 -0.82421875 92.40625 C-3.47119529 90.93996992 -4.39076822 89.93662204 -5.9375 87.375 C-6.44410156 86.570625 -6.95070313 85.76625 -7.47265625 84.9375 C-8.05917969 83.98875 -8.64570312 83.04 -9.25 82.0625 C-29.57462759 49.86057958 -57.66768162 27.46687078 -94.98046875 18.12890625 C-130.77664578 10.11025566 -166.98730461 15.92526432 -198.25 35.0625 C-202.46994045 37.79484367 -206.40038963 40.83065771 -210.25 44.0625 C-211.10722656 44.78050781 -211.96445312 45.49851562 -212.84765625 46.23828125 C-236.41588859 66.74665035 -252.39564674 95.73213644 -255.25 127.0625 C-257.38297014 160.89326111 -247.30698617 191.47384147 -225.03588867 217.05249023 C-213.10208844 230.29535025 -198.93294745 239.77758612 -183.25 248.0625 C-182.47640137 248.47129395 -181.70280273 248.88008789 -180.90576172 249.30126953 C-167.27992642 256.37705118 -153.07463644 261.00760567 -138.33203125 265.171875 C-137.27371094 265.48640625 -136.21539062 265.8009375 -135.125 266.125 C-133.82175781 266.48271484 -133.82175781 266.48271484 -132.4921875 266.84765625 C-129.30304141 268.57557338 -127.6535002 270.78897569 -126.25 274.0625 C-125.67995467 277.72651536 -125.71271211 281.34098018 -125.75390625 285.04296875 C-125.75245102 286.0927742 -125.75099579 287.14257965 -125.74949646 288.22419739 C-125.75115188 290.4355447 -125.76267301 292.64690395 -125.78344727 294.8581543 C-125.81249169 298.24902969 -125.80403034 301.63834965 -125.79101562 305.02929688 C-125.79725058 307.17969512 -125.80563961 309.33008842 -125.81640625 311.48046875 C-125.81347061 312.49610397 -125.81053497 313.5117392 -125.80751038 314.55815125 C-125.82019455 315.4995546 -125.83287872 316.44095795 -125.84594727 317.41088867 C-125.85135025 318.23884445 -125.85675323 319.06680023 -125.86231995 319.91984558 C-126.34478273 322.58635116 -127.07406095 323.47921082 -129.25 325.0625 C-147.55396305 326.7511344 -168.24248553 319.21110077 -185.25 313.0625 C-186.10287598 312.75441406 -186.95575195 312.44632813 -187.83447266 312.12890625 C-216.76106915 301.49177521 -241.98587037 285.25593599 -264.25 264.0625 C-265.00667969 263.37027344 -265.76335937 262.67804688 -266.54296875 261.96484375 C-277.67527395 251.44086124 -286.7183882 238.33937977 -294.25 225.0625 C-294.57806641 224.4938623 -294.90613281 223.92522461 -295.24414062 223.33935547 C-317.28750691 184.91098222 -323.67882659 137.80437724 -312.19897461 94.94677734 C-310.97741654 90.62060537 -309.6396797 86.3372946 -308.25 82.0625 C-307.91210449 81.00603271 -307.91210449 81.00603271 -307.56738281 79.92822266 C-292.67872838 34.29416299 -257.15865412 -2.75979848 -215.25 -24.9375 C-203.67894803 -30.76501463 -191.6478172 -35.2247085 -179.25 -38.9375 C-177.99316406 -39.31777344 -176.73632812 -39.69804687 -175.44140625 -40.08984375 C-115.00467334 -56.75554013 -47.42206911 -40.21629231 0 0 Z " fill="#F9F2E7" transform="translate(638.25,257.9375)"/>
<path d="M0 0 C4.17764488 4.29102564 6.25853946 9.55785545 8.6875 14.9375 C14.66106199 27.79894468 21.74773953 39.19078274 31 50 C31.69738281 50.81984375 32.39476562 51.6396875 33.11328125 52.484375 C57.41041515 80.27718891 92.95067168 98.46166249 129.89501953 101.21582031 C149.5780553 102.14028119 168.18123911 99.37391433 186.875 93.3046875 C187.60090332 93.07910156 188.32680664 92.85351562 189.07470703 92.62109375 C190.63099136 92.11904108 192.16108084 91.53624468 193.6796875 90.9296875 C196 91 196 91 198.8203125 93.453125 C199.93604224 94.70627852 201.03627841 95.97331215 202.125 97.25 C207.25103404 103.00793693 212.51497145 108.58095254 217.98828125 114.0078125 C218.90441193 114.91642029 218.90441193 114.91642029 219.83905029 115.84338379 C222.3268956 118.30651459 224.81794722 120.76630173 227.31524658 123.21984863 C229.08800882 124.96273516 230.85487123 126.71142801 232.62109375 128.4609375 C233.16413651 128.99051056 233.70717926 129.52008362 234.26667786 130.06570435 C235.54943129 131.33968626 236.78039597 132.66543929 238 134 C238 134.66 238 135.32 238 136 C208.35336812 150.84853179 178.48621515 161.45145702 144.92407227 161.26074219 C142.6997522 161.25005885 140.47624838 161.26068942 138.25195312 161.2734375 C82.86941713 161.32911712 31.93350566 137.73855143 -7 99 C-7.49161621 98.51241211 -7.98323242 98.02482422 -8.48974609 97.52246094 C-23.13278589 82.79241252 -34.3445084 65.28247937 -44 47 C-44.39928711 46.24541504 -44.79857422 45.49083008 -45.20996094 44.71337891 C-50.90359138 33.77795426 -50.90359138 33.77795426 -51.16796875 28.90234375 C-49.36472663 24.42137755 -46.13887298 23.21844226 -42 21 C-39.95873819 19.81759077 -37.91984768 18.63108227 -35.8828125 17.44140625 C-33.6310501 16.14697208 -31.37842638 14.85403523 -29.125 13.5625 C-26.87710732 12.27300115 -24.62970441 10.9826481 -22.3828125 9.69140625 C-21.30628418 9.07322021 -20.22975586 8.45503418 -19.12060547 7.81811523 C-15.39276174 5.64621316 -11.71613487 3.39716234 -8.05566406 1.11376953 C-5.13152465 -0.47054448 -3.22700297 -0.84516745 0 0 Z " fill="#F8F0E5" transform="translate(357,643)"/>
<path d="M0 0 C2.5113266 0.05251236 4.83194123 0.23803518 7.3125 0.5625 C8.06378174 0.65837402 8.81506348 0.75424805 9.58911133 0.85302734 C40.07892751 5.07464623 70.18487486 16.65995853 95 35 C96.04929687 35.76699219 97.09859375 36.53398437 98.1796875 37.32421875 C105.91032572 43.07085758 113.04285601 49.34698057 120 56 C120.92683594 56.87398438 121.85367188 57.74796875 122.80859375 58.6484375 C128.5088461 64.16272417 133.50848893 69.91741196 138.29711914 76.22973633 C140.19707997 78.73395288 142.07579957 81.07477698 144.31640625 83.28515625 C146 85 146 85 146 87 C145.36610352 87.12528076 144.73220703 87.25056152 144.07910156 87.37963867 C124.94283004 91.21141117 108.65802283 95.15623243 95 110 C91.34924186 108.49867699 89.36723727 106.41104665 86.8125 103.4375 C67.47406484 81.55618619 43.41858233 67.40211359 14.7734375 61.04296875 C14.05341553 60.87877441 13.33339355 60.71458008 12.59155273 60.54541016 C11.1913353 60.23149991 9.78715591 59.93460645 8.37915039 59.65771484 C4.90428441 58.88067743 3.1190791 58.12101534 0.59765625 55.55859375 C-1.6171219 52.01169964 -2.12667908 49.38046993 -2.14526367 45.28491211 C-2.15164352 44.33059799 -2.15802338 43.37628387 -2.16459656 42.39305115 C-2.16570938 41.36486771 -2.1668222 40.33668427 -2.16796875 39.27734375 C-2.17129715 38.22092178 -2.17462555 37.16449982 -2.17805481 36.07606506 C-2.18311841 33.84262528 -2.18546331 31.60917794 -2.18530273 29.37573242 C-2.18749353 25.94762847 -2.20566717 22.51984405 -2.22460938 19.09179688 C-2.22754247 16.92448027 -2.22952783 14.75716213 -2.23046875 12.58984375 C-2.23765427 11.55963608 -2.24483978 10.52942841 -2.25224304 9.46800232 C-2.24916641 8.51684036 -2.24608978 7.56567841 -2.24291992 6.58569336 C-2.24434494 5.74646835 -2.24576996 4.90724335 -2.24723816 4.04258728 C-2 2 -2 2 0 0 Z " fill="#F7F0E5" transform="translate(510,431)"/>
<path d="M0 0 C1.25764664 -0.01004562 2.51529327 -0.02009125 3.81105042 -0.03044128 C5.21263063 -0.03647161 6.61421147 -0.04235659 8.01579285 -0.04811096 C9.48579127 -0.05764739 10.95578742 -0.06753845 12.42578125 -0.07775879 C17.26068958 -0.10916577 22.09561526 -0.12941171 26.93058777 -0.14796448 C27.75274961 -0.1512618 28.57491146 -0.15455912 29.4219873 -0.15795636 C37.17346665 -0.18873588 44.92494984 -0.21544763 52.67647266 -0.23237514 C62.59694458 -0.25429201 72.51687594 -0.29628299 82.4371317 -0.36581272 C89.40958866 -0.41302544 96.38189962 -0.43730495 103.35451144 -0.44457203 C107.52048465 -0.44953218 111.68584885 -0.46464635 115.85164833 -0.50431633 C119.77116734 -0.5411491 123.6897287 -0.54960421 127.60938835 -0.5363102 C129.04734247 -0.5363642 130.48533865 -0.54668414 131.92313385 -0.56806183 C142.73864268 -0.72026521 142.73864268 -0.72026521 146.06569386 1.43485737 C149.07931252 4.85964689 149.73048725 8.02264131 149.72746277 12.47703552 C149.72939636 13.65330505 149.73132996 14.82957458 149.73332214 16.04148865 C149.70947449 17.25643005 149.68562683 18.47137146 149.66105652 19.72312927 C149.67201355 20.94193787 149.68297058 22.16074646 149.69425964 23.41648865 C149.61161215 33.46091378 149.61161215 33.46091378 145.09855652 38.16062927 C142.40029996 39.50975755 140.29542964 39.29897943 137.27304077 39.31452942 C136.03222244 39.32312988 134.79140411 39.33173035 133.51298523 39.34059143 C132.13029522 39.34502678 130.74760476 39.34932513 129.36491394 39.35350037 C127.91461998 39.36140046 126.46432799 39.36966935 125.01403809 39.37828064 C120.24405294 39.40451042 115.47405897 39.41980871 110.70402527 39.43406677 C109.06286933 39.43942596 107.42171345 39.44480347 105.78055763 39.45019913 C98.95469391 39.4718288 92.12883256 39.4905662 85.30294323 39.50182152 C75.51566771 39.5180653 65.72878891 39.55125213 55.94166297 39.60822237 C49.06262044 39.64690179 42.18368412 39.66645179 35.30453569 39.67174208 C31.19453454 39.67539819 27.08495643 39.6874463 22.97507286 39.71984482 C19.10815985 39.74989092 15.24192659 39.75625013 11.3749218 39.74446106 C9.95633156 39.74424003 8.53771011 39.75256946 7.11922836 39.7701149 C-4.94622024 39.91122104 -4.94622024 39.91122104 -8.22155762 36.74916077 C-11.84701184 31.16270835 -11.12337119 25.88546306 -11.15144348 19.34812927 C-11.17206848 18.15896912 -11.19269348 16.96980896 -11.21394348 15.74461365 C-11.22167786 14.02274841 -11.22167786 14.02274841 -11.22956848 12.26609802 C-11.23891418 11.21575378 -11.24825989 10.16540955 -11.25788879 9.08323669 C-10.84921207 5.73236749 -9.89024799 3.86391452 -7.90144348 1.16062927 C-5.18592656 -0.19712919 -3.04141811 0.01903596 0 0 Z " fill="#F9F1E5" transform="translate(623.9014434814453,646.8393707275391)"/>
<path d="M0 0 C2.65845673 2.37000248 4.11161791 4.81984154 5.6875 8 C6.12449219 8.86625 6.56148437 9.7325 7.01171875 10.625 C8 13 8 13 8 16 C8.66 16 9.32 16 10 16 C12.14412179 20.58062382 13.47136729 24.82491849 14.47265625 29.7734375 C15.00485697 32.269375 15.00485697 32.269375 16.4375 35.5625 C20.56854248 46.26190002 21.44023954 58.53360407 23.0625 69.8125 C23.30601196 71.45255005 23.30601196 71.45255005 23.55444336 73.12573242 C26.95292093 97.56059629 27.29836117 122.00096297 27.26144934 146.6151098 C27.25685042 151.16971738 27.26394518 155.72431082 27.26940918 160.27891541 C27.27823053 169.16740496 27.27641283 178.05586044 27.2705839 186.94435125 C27.26603368 194.18875469 27.26546889 201.43314871 27.26763153 208.67755318 C27.267938 209.71582841 27.26824446 210.75410365 27.26856022 211.82384177 C27.2691998 213.93448818 27.26984823 216.04513458 27.2705054 218.15578098 C27.27618873 237.88248919 27.26968483 257.60917872 27.25890467 277.33588386 C27.24999355 294.16069955 27.25150493 310.98548757 27.26074219 327.81030273 C27.27151951 347.44876721 27.2756161 367.0872153 27.26951766 386.72568232 C27.26888073 388.83298115 27.26825198 390.94027998 27.26763153 393.04757881 C27.26732298 394.08378471 27.26701443 395.11999061 27.26669653 396.18759669 C27.26499009 403.39129822 27.26788012 410.594989 27.27259064 417.79868889 C27.36023642 565.16318244 27.36023642 565.16318244 10 604 C8.85302491 600.55907472 9.1600547 599.80990729 10.29296875 596.484375 C10.59178955 595.57486084 10.89061035 594.66534668 11.19848633 593.72827148 C11.6880481 592.2540271 11.6880481 592.2540271 12.1875 590.75 C14.73576288 582.71161327 16.87236389 574.74926693 18.3125 566.4375 C18.45905029 565.61540039 18.60560059 564.79330078 18.7565918 563.94628906 C19.24097159 560.97061169 19.62224938 557.99128655 20 555 C20.16793438 553.70753105 20.33586876 552.4150621 20.50889206 551.08342743 C22.74088834 531.7958875 22.28563227 512.36159643 22.26144934 492.97833896 C22.25688242 487.55357292 22.26392941 482.12881928 22.26940918 476.70405579 C22.27826 466.10506945 22.2764005 455.50611158 22.2705839 444.90712416 C22.26605035 436.28607745 22.2654618 427.66503866 22.26763153 419.04399109 C22.267938 417.8127373 22.26824446 416.5814835 22.26856022 415.31291899 C22.26919973 412.81093983 22.26984815 410.30896066 22.2705054 407.8069815 C22.27619606 384.39601092 22.26967068 360.98505605 22.25890467 337.57408804 C22.24986274 317.52610949 22.25152271 297.47815392 22.26074219 277.43017578 C22.2714672 254.0977568 22.27564686 230.76535157 22.26951766 207.43293047 C22.26888062 204.94062329 22.26825188 202.4483161 22.26763153 199.95600891 C22.26732298 198.73003702 22.26701443 197.50406512 22.26669653 196.24094257 C22.26497627 187.63935933 22.26787019 179.03778488 22.27259064 170.436203 C22.27822432 159.94073868 22.27663103 149.44530423 22.26602915 138.94984329 C22.26080574 133.60429484 22.25865824 128.25879604 22.26532745 122.91324806 C22.63676238 87.21780342 22.63676238 87.21780342 17.8125 51.9375 C17.59891846 50.95128662 17.38533691 49.96507324 17.1652832 48.94897461 C13.70273492 33.61237736 8.51562927 19.23224408 1.50390625 5.17578125 C0 2 0 2 0 0 Z " fill="#CAC7C4" transform="translate(891,205)"/>
<path d="M0 0 C3.68743234 -0.05850924 7.3747437 -0.09376673 11.0625 -0.125 C12.10083984 -0.14175781 13.13917969 -0.15851562 14.20898438 -0.17578125 C15.22412109 -0.18222656 16.23925781 -0.18867187 17.28515625 -0.1953125 C18.21207275 -0.20578613 19.13898926 -0.21625977 20.09399414 -0.22705078 C23 0 23 0 26.17391211 0.9988097 C30.24085852 2.06302657 33.95745452 2.27617689 38.12341213 2.24609566 C38.91658281 2.24840335 39.70975348 2.25071103 40.52695963 2.25308865 C43.18305146 2.25837972 45.8389005 2.24941198 48.49497986 2.24050903 C50.41905399 2.24138128 52.34312789 2.24313262 54.26720053 2.24568737 C59.55314731 2.25016108 64.83901311 2.24215682 70.12494957 2.23213124 C75.82562961 2.22349944 81.52630502 2.22641671 87.22698975 2.22793579 C97.10340902 2.22898481 106.97980189 2.22270641 116.85621452 2.21146011 C131.13587084 2.19521042 145.41551437 2.18999765 159.69517893 2.18748413 C182.86263014 2.1831062 206.03006633 2.1698116 229.19750977 2.15087891 C251.7033684 2.13250811 274.20922326 2.11834183 296.71508789 2.10986328 C297.40890321 2.10960023 298.10271852 2.10933718 298.81755854 2.10906615 C305.78518214 2.1064291 312.75280577 2.10387747 319.72042942 2.10138843 C378.14696231 2.08050878 436.573481 2.04521851 495 2 C495 2.33 495 2.66 495 3 C472.39191801 6.08730778 449.21536472 5.1512071 426.44595146 5.14538372 C421.39595142 5.14517725 416.34595687 5.15072156 411.29595947 5.15544128 C401.43137618 5.16369552 391.56679886 5.16649373 381.70221239 5.16705366 C373.67242032 5.16753128 365.6426302 5.16959818 357.61283875 5.17275429 C334.77467384 5.18154624 311.93651361 5.1861759 289.09834701 5.18542381 C287.87093156 5.18538386 286.64351611 5.1853439 285.37890625 5.18530273 C284.14996743 5.18526185 282.92102862 5.18522097 281.65484923 5.18517885 C261.75387782 5.1847727 241.85292536 5.19433843 221.95195943 5.2084411 C201.44700524 5.22285549 180.94206026 5.22970853 160.43710089 5.22884732 C148.95356793 5.22851712 137.47005484 5.23118616 125.98652649 5.24202538 C116.207931 5.25119729 106.42936439 5.25325133 96.65076643 5.24651595 C91.67674144 5.24328426 86.70277164 5.24307025 81.72875214 5.2518692 C60.48831449 5.28708401 39.3951073 4.99216917 18.21565533 3.25829279 C16.01003149 3.0811293 13.80279451 2.92329983 11.594594 2.78182924 C10.51862556 2.70847467 9.44265711 2.63512009 8.33408356 2.55954266 C6.90048359 2.4693042 6.90048359 2.4693042 5.437922 2.37724274 C3 2 3 2 0 0 Z " fill="#A4B4B3" transform="translate(255,908)"/>
<path d="M0 0 C2.43802438 3.65703657 2.25131185 5.38673597 2.25396729 9.74632263 C2.25708727 10.43654623 2.26020725 11.12676982 2.26342177 11.83790928 C2.27141736 14.15822031 2.26507095 16.47827087 2.25878906 18.79858398 C2.26149926 20.46160536 2.26506035 22.12462553 2.26940918 23.78764343 C2.27856106 28.323363 2.27496982 32.85899193 2.26865101 37.39471316 C2.26357112 42.18144387 2.26829115 46.96816704 2.27142334 51.75489807 C2.2750716 59.83815891 2.27025642 67.92138336 2.26074219 76.00463867 C2.25000675 85.22934906 2.25326878 94.45397001 2.264395 103.67867798 C2.27362678 111.66323187 2.27467319 119.64775958 2.26951766 127.63231713 C2.26646361 132.36992306 2.26579654 137.1074879 2.27259064 141.84509087 C2.29756329 162.11182959 2.00470505 182.33002488 1.09667969 202.57836914 C1.05705502 203.48497941 1.01743035 204.39158968 0.97660494 205.32567298 C-0.32724903 234.49115428 -2.96367689 264.07338026 -15 291 C-16.14697509 287.55907472 -15.8399453 286.80990729 -14.70703125 283.484375 C-14.40821045 282.57486084 -14.10938965 281.66534668 -13.80151367 280.72827148 C-13.47513916 279.74544189 -13.14876465 278.7626123 -12.8125 277.75 C-10.26423712 269.71161327 -8.12763611 261.74926693 -6.6875 253.4375 C-6.54094971 252.61540039 -6.39439941 251.79330078 -6.2434082 250.94628906 C-3.36108799 233.23940871 -2.69930724 215.39430349 -2.68115234 197.49072266 C-2.67182284 195.33971798 -2.66164986 193.18871682 -2.65071106 191.03771973 C-2.62373708 185.27475091 -2.60836005 179.51180606 -2.59528303 173.74879122 C-2.57950755 167.69768346 -2.55276443 161.64662367 -2.5272522 155.59555054 C-2.48071695 144.17111041 -2.44385173 132.746661 -2.41057932 121.32217538 C-2.372178 108.30132679 -2.32281586 95.28052667 -2.27259517 82.25971913 C-2.16965154 55.50651549 -2.0802706 28.75328062 -2 2 C-1.34 2 -0.68 2 0 2 C0 1.34 0 0.68 0 0 Z " fill="#C3BDB9" transform="translate(916,518)"/>
<path d="M0 0 C2.65845673 2.37000248 4.11161791 4.81984154 5.6875 8 C6.12449219 8.86625 6.56148437 9.7325 7.01171875 10.625 C8 13 8 13 8 16 C8.66 16 9.32 16 10 16 C12.14412179 20.58062382 13.47136729 24.82491849 14.47265625 29.7734375 C15.00485697 32.269375 15.00485697 32.269375 16.4375 35.5625 C20.56854248 46.26190002 21.44023954 58.53360407 23.0625 69.8125 C23.30601196 71.45255005 23.30601196 71.45255005 23.55444336 73.12573242 C26.74327375 96.05324478 27.29137665 119.02548048 27.1373291 142.13122559 C27.11633673 145.63237946 27.10762512 149.13356609 27.09765625 152.63476562 C27.07662963 159.42325197 27.04280932 166.21161672 27 173 C26.67 173 26.34 173 26 173 C25.67 169.7 25.34 166.4 25 163 C24.67 163 24.34 163 24 163 C23.00700548 155.69786346 22.82530604 148.49234219 22.77020454 141.1275425 C22.7534907 138.96578448 22.73023886 136.8041799 22.70530701 134.64250183 C22.63542227 128.50108849 22.57524212 122.35960748 22.52319336 116.21801758 C22.4134443 83.87818136 22.4134443 83.87818136 17.8125 51.9375 C17.59891846 50.95128662 17.38533691 49.96507324 17.1652832 48.94897461 C13.70273492 33.61237736 8.51562927 19.23224408 1.50390625 5.17578125 C0 2 0 2 0 0 Z " fill="#D5D0CE" transform="translate(891,205)"/>
<path d="M0 0 C0 3.20395416 -0.74335022 5.09399739 -2 8 C-2.99 8 -3.98 8 -5 8 C-5 8.66 -5 9.32 -5 10 C-7.3986654 12.05599892 -9.9029922 13.927866 -12.4375 15.8125 C-15.14379681 18.12275337 -17.31109216 20.59792426 -19.58203125 23.32421875 C-21.28143221 25.3326017 -23.1069037 27.17451429 -25 29 C-25.66 29.66 -26.32 30.32 -27 31 C-28.08038214 31.89939029 -29.16408415 32.79479891 -30.25 33.6875 C-32.72592055 35.79075622 -34.87537174 37.92904809 -36.9375 40.4375 C-39.7629139 43.8738142 -42.94937999 46.67786487 -46.36328125 49.51953125 C-48.11188885 50.92100715 -48.11188885 50.92100715 -49 53 C-53.53539004 55.96586366 -57.50420782 57.54957922 -63 57 C-63.495 57.99 -63.495 57.99 -64 59 C-65.83324547 59.02749868 -67.6666171 59.04661673 -69.5 59.0625 C-70.5209375 59.07410156 -71.541875 59.08570313 -72.59375 59.09765625 C-76 59 -76 59 -79.875 58.46875 C-84.12405586 57.9002925 -88.23749248 58.13146025 -92.5 58.4375 C-103.62185983 59.09989097 -114.73776879 59.11813349 -125.875 59.125 C-127.21050903 59.12861038 -127.21050903 59.12861038 -128.57299805 59.1322937 C-131.15026561 59.13825575 -133.72741804 59.13680697 -136.3046875 59.1328125 C-137.07694672 59.13480148 -137.84920593 59.13679047 -138.64486694 59.13883972 C-143.19648452 59.11949042 -147.50859937 58.74695961 -152 58 C-152 57.34 -152 56.68 -152 56 C-150.87993057 55.99635437 -149.75986115 55.99270874 -148.60585022 55.98895264 C-138.02757334 55.95194091 -127.4495859 55.89410063 -116.87152958 55.81609726 C-111.43379101 55.77666217 -105.99621342 55.74445413 -100.55834961 55.72900391 C-95.30617227 55.71381134 -90.05443763 55.67931927 -84.80245781 55.63169098 C-82.80314427 55.61690405 -80.80376753 55.60896053 -78.80439949 55.60811615 C-75.99420625 55.60573665 -73.18522671 55.57857821 -70.37524414 55.54589844 C-69.14740456 55.55344398 -69.14740456 55.55344398 -67.89476013 55.56114197 C-60.44663869 55.42795904 -53.59869348 53.06155714 -48.08789062 47.89428711 C-47.10816284 46.9839119 -47.10816284 46.9839119 -46.10864258 46.05514526 C-45.41279053 45.37694733 -44.71693848 44.69874939 -44 44 C-43.21197998 43.23503204 -42.42395996 42.47006409 -41.61206055 41.68191528 C-38.9206887 39.03646723 -36.25478858 36.36735477 -33.59375 33.69140625 C-32.61891355 32.7146999 -31.64385251 31.73821766 -30.6685791 30.76194763 C-28.12813699 28.21772539 -25.59071491 25.67051264 -23.05395508 23.12261963 C-20.45448873 20.51284118 -17.85211506 17.90596518 -15.25 15.29882812 C-10.16385082 10.20202128 -5.0808953 5.10204492 0 0 Z " fill="#0D2732" transform="translate(800,736)"/>
<path d="M0 0 C0.33 0 0.66 0 1 0 C1.04640402 8.89284087 1.08191014 17.78563985 1.10362434 26.67857552 C1.1140477 30.80822155 1.12818038 34.93778456 1.15087891 39.06738281 C1.17265903 43.0549895 1.18457952 47.04251647 1.18975449 51.03017807 C1.19344097 52.54916513 1.20063975 54.06814799 1.21146011 55.58710098 C1.22604393 57.71978325 1.22797509 59.85213892 1.22705078 61.98486328 C1.231492 63.1973172 1.23593323 64.40977112 1.24050903 65.65896606 C0.99413975 69.08140766 0.22810094 71.80886889 -1 75 C-1.33 75 -1.66 75 -2 75 C-2.77275993 61.23704784 -3.18646947 47.51176251 -3.18530273 33.72680664 C-3.18754857 30.74807602 -3.20597606 27.76968404 -3.22460938 24.79101562 C-3.22753406 22.88802208 -3.22952502 20.98502681 -3.23046875 19.08203125 C-3.23765427 18.19578568 -3.24483978 17.3095401 -3.25224304 16.3964386 C-3.22890272 10.22890272 -3.22890272 10.22890272 -1 8 C-0.54188325 6.02764667 -0.54188325 6.02764667 -0.375 3.875 C-0.25125 2.59625 -0.1275 1.3175 0 0 Z " fill="#BBB8B5" transform="translate(917,596)"/>
<path d="M0 0 C0.99 0.33 1.98 0.66 3 1 C3.78297563 12.98772102 4.213077 24.93962347 4.24023438 36.95336914 C4.25011139 39.59226072 4.28137331 42.23042442 4.3125 44.86914062 C4.31901845 46.58072468 4.32427344 48.29231412 4.328125 50.00390625 C4.3404718 50.77593887 4.3528186 51.5479715 4.36553955 52.34339905 C4.34259241 58.01731099 3.05716902 62.72722632 1 68 C0.67 68 0.34 68 0 68 C0 45.56 0 23.12 0 0 Z " fill="#C3C0BE" transform="translate(914,359)"/>
<path d="M0 0 C3.68743234 -0.05850924 7.3747437 -0.09376673 11.0625 -0.125 C12.10083984 -0.14175781 13.13917969 -0.15851562 14.20898438 -0.17578125 C15.22412109 -0.18222656 16.23925781 -0.18867187 17.28515625 -0.1953125 C18.21207275 -0.20578613 19.13898926 -0.21625977 20.09399414 -0.22705078 C23 0 23 0 25.82299805 0.9942627 C31.64294797 2.69150781 37.72907806 2.30881085 43.73803711 2.31884766 C45.12822039 2.32815634 46.51839812 2.33832641 47.90856934 2.34928894 C51.66628773 2.37649711 55.42396882 2.39171096 59.1817596 2.40471697 C63.1149145 2.42038787 67.04799369 2.4471654 70.98109436 2.4727478 C78.4217274 2.51946566 85.86237479 2.55624353 93.30307919 2.58942068 C101.77712958 2.62769158 110.25110381 2.67708868 118.72508991 2.72740483 C136.15000477 2.83062063 153.57496379 2.91991458 171 3 C171 3.33 171 3.66 171 4 C155.23754433 4.17915462 139.47500412 4.34461571 123.7122488 4.49477577 C116.38954688 4.56483624 109.06693396 4.6389983 101.74438477 4.72363281 C95.34494722 4.79758663 88.94548223 4.86301464 82.54586273 4.91914403 C79.17282624 4.94900104 75.80003592 4.98375894 72.42712212 5.02626419 C54.32259837 5.25094755 36.43828626 4.67600672 18.39538765 3.26258469 C16.11328727 3.08609685 13.82989049 2.92570301 11.5455761 2.78065872 C9.93431941 2.67069124 9.93431941 2.67069124 8.29051208 2.5585022 C6.86634806 2.46848907 6.86634806 2.46848907 5.41341305 2.37665749 C3 2 3 2 0 0 Z " fill="#32595E" transform="translate(255,908)"/>
<path d="M0 0 C-3.05223219 2.12731335 -4.93749324 2.99258394 -8.6875 3.4375 C-9.780625 3.623125 -10.87375 3.80875 -12 4 C-13.51294288 5.93597032 -13.51294288 5.93597032 -14 8 C-14.495 7.01 -14.495 7.01 -15 6 C-17.31 6.33 -19.62 6.66 -22 7 C-22 7.66 -22 8.32 -22 9 C-23.10408203 9.18175781 -23.10408203 9.18175781 -24.23046875 9.3671875 C-25.20628906 9.53476562 -26.18210937 9.70234375 -27.1875 9.875 C-28.15042969 10.03742187 -29.11335937 10.19984375 -30.10546875 10.3671875 C-33.00676708 10.91629123 -33.00676708 10.91629123 -35.64453125 12.0703125 C-38.79867942 13.31523334 -41.62900331 13 -45 13 C-45.72147217 13.32524658 -46.44294434 13.65049316 -47.1862793 13.9855957 C-50.96406079 15.34756378 -54.55772786 15.26695161 -58.51953125 15.23046875 C-59.74563362 15.22978142 -59.74563362 15.22978142 -60.99650574 15.2290802 C-62.72205053 15.22606684 -64.44759282 15.21820802 -66.1730957 15.20581055 C-68.79323139 15.18763367 -71.41301112 15.18530059 -74.03320312 15.18554688 C-75.71614884 15.18062765 -77.3990922 15.17479758 -79.08203125 15.16796875 C-80.24337334 15.16629951 -80.24337334 15.16629951 -81.42817688 15.16459656 C-86.36291016 15.12228348 -91.11325996 14.69483822 -96 14 C-96 13.67 -96 13.34 -96 13 C-94.32381592 12.97812622 -94.32381592 12.97812622 -92.61376953 12.95581055 C-88.37519957 12.8968162 -84.13710647 12.8196144 -79.89892578 12.73754883 C-78.08194857 12.70476584 -76.26488087 12.67659752 -74.44775391 12.65356445 C-58.4814709 12.44592325 -43.29948339 10.65487045 -27.8125 6.625 C-26.99080322 6.4172998 -26.16910645 6.20959961 -25.32250977 5.99560547 C-18.70842817 4.28324264 -12.28519152 2.16676229 -5.87109375 -0.1796875 C-3 -1 -3 -1 0 0 Z " fill="#101F24" transform="translate(573,791)"/>
<path d="M0 0 C0.33 0 0.66 0 1 0 C1 5.61 1 11.22 1 17 C0.67 17 0.34 17 0 17 C-0.82806629 25.44605443 -1.16367547 33.81197616 -1.20532227 42.29589844 C-1.21522186 43.56561493 -1.22512146 44.83533142 -1.23532104 46.14352417 C-1.26205034 49.58483335 -1.28323022 53.0261558 -1.30332303 56.46750927 C-1.32538302 60.07896955 -1.35267257 63.69039048 -1.37937927 67.30181885 C-1.42903844 74.12251284 -1.47407511 80.943229 -1.51740164 87.76396585 C-1.56700479 95.53679457 -1.62183636 103.30958375 -1.67708123 111.0823741 C-1.79048952 127.05487941 -1.89741607 143.02742127 -2 159 C-2.33 159 -2.66 159 -3 159 C-3.15524946 144.42043152 -3.30322163 129.84080353 -3.4429636 115.26107788 C-3.50803776 108.48862924 -3.5753291 101.71621734 -3.64819336 94.94384766 C-3.71848329 88.38860558 -3.78259058 81.83332771 -3.84269524 75.27798462 C-3.86647498 72.79698553 -3.89235452 70.3160055 -3.92053413 67.83505249 C-4.58053338 9.16106675 -4.58053338 9.16106675 0 0 Z " fill="#254D53" transform="translate(110,265)"/>
<path d="M0 0 C1.32 0.33 2.64 0.66 4 1 C4.22384358 15.81844517 4.12487525 30.31559427 2 45 C1.67 45 1.34 45 1 45 C0.18647759 39.32504784 -0.13614934 33.85307186 -0.09765625 28.125 C-0.0962413 27.31506592 -0.09482635 26.50513184 -0.09336853 25.6706543 C-0.08782383 23.11373006 -0.07528207 20.55689724 -0.0625 18 C-0.05747784 16.25390753 -0.05291619 14.50781366 -0.04882812 12.76171875 C-0.0378726 8.50777791 -0.02064694 4.25390439 0 0 Z " fill="#C7C3C1" transform="translate(914,569)"/>
<path d="M0 0 C0.33 0.66 0.66 1.32 1 2 C1.66 2.33 2.32 2.66 3 3 C0.40604688 26.46878536 -2.26765777 49.22764676 -12 71 C-13.14697509 67.55907472 -12.8399453 66.80990729 -11.70703125 63.484375 C-11.25880005 62.12010376 -11.25880005 62.12010376 -10.80151367 60.72827148 C-10.47513916 59.74544189 -10.14876465 58.7626123 -9.8125 57.75 C-3.81989502 38.8465828 -1.43185681 19.72295444 0 0 Z " fill="#ABAAA8" transform="translate(913,738)"/>
<path d="M0 0 C2.65845673 2.37000248 4.11161791 4.81984154 5.6875 8 C6.12449219 8.86625 6.56148437 9.7325 7.01171875 10.625 C8 13 8 13 8 16 C8.66 16 9.32 16 10 16 C12.14412179 20.58062382 13.47136729 24.82491849 14.47265625 29.7734375 C15.00485697 32.269375 15.00485697 32.269375 16.4375 35.5625 C20.99202927 47.20185257 21.70293934 60.67029398 23 73 C22.01 73.495 22.01 73.495 21 74 C20.84144531 72.71609375 20.68289063 71.4321875 20.51953125 70.109375 C17.52254122 46.92970304 11.86684411 24.83992158 0.953125 4.03564453 C0 2 0 2 0 0 Z " fill="#E4E1E0" transform="translate(891,205)"/>
<path d="M0 0 C2.54877415 1.27438707 2.75819929 2.48695106 4 5 C5.28257709 6.54756871 5.28257709 6.54756871 6.78149414 7.9609375 C7.33869644 8.50830566 7.89589874 9.05567383 8.46998596 9.61962891 C9.06899216 10.19890137 9.66799835 10.77817383 10.28515625 11.375 C11.55024537 12.61967462 12.81521575 13.86446996 14.08007812 15.109375 C16.07476117 17.06049742 18.07184081 19.00908995 20.0715332 20.95507812 C22.00331976 22.83863535 23.92585156 24.73126727 25.84765625 26.625 C26.44868668 27.20427246 27.0497171 27.78354492 27.66896057 28.38037109 C30.49998168 31.17724941 32.27714305 33.07489174 33 37 C27.25 40 27.25 40 25 40 C25 40.66 25 41.32 25 42 C22.87875034 42.86343824 20.75286928 43.71550648 18.625 44.5625 C17.44164062 45.03816406 16.25828125 45.51382813 15.0390625 46.00390625 C12 47 12 47 10 46 C13.12147545 44.32666842 16.24773498 42.66248284 19.375 41 C20.26445313 40.52304687 21.15390625 40.04609375 22.0703125 39.5546875 C23.34648438 38.87792969 23.34648438 38.87792969 24.6484375 38.1875 C25.43395996 37.76855469 26.21948242 37.34960938 27.02880859 36.91796875 C29 36 29 36 31 36 C24.80413033 28.55764895 17.9277465 21.81384685 11.0625 15 C9.88973991 13.83226626 8.71721202 12.66429926 7.54492188 11.49609375 C4.69928311 8.66136766 1.85052547 5.82981176 -1 3 C-0.67 2.01 -0.34 1.02 0 0 Z M33 34 C33.66 34.66 34.32 35.32 35 36 C34.34 36 33.68 36 33 36 C33 35.34 33 34.68 33 34 Z " fill="#0E181D" transform="translate(564,743)"/>
<path d="M0 0 C0 3.20395416 -0.74335022 5.09399739 -2 8 C-2.99 8 -3.98 8 -5 8 C-5 8.66 -5 9.32 -5 10 C-7.3986654 12.05599892 -9.9029922 13.927866 -12.4375 15.8125 C-15.14379681 18.12275337 -17.31109216 20.59792426 -19.58203125 23.32421875 C-21.28143221 25.3326017 -23.1069037 27.17451429 -25 29 C-25.66 29.66 -26.32 30.32 -27 31 C-28.11524763 32.01086484 -29.24130253 33.0098712 -30.375 34 C-30.96023438 34.515625 -31.54546875 35.03125 -32.1484375 35.5625 C-34.02003815 37.01555704 -35.87304881 37.9726258 -38 39 C-33.69372744 33.85170256 -29.17688069 29.04247928 -24.4140625 24.31640625 C-23.71227875 23.61603745 -23.010495 22.91566864 -22.28744507 22.19407654 C-20.06898864 19.98116973 -17.84706185 17.77178584 -15.625 15.5625 C-14.11044534 14.05296686 -12.59612015 12.54320343 -11.08203125 11.03320312 C-7.39066901 7.35280298 -3.69645931 3.67528043 0 0 Z " fill="#222730" transform="translate(800,736)"/>
<path d="M0 0 C0.99 0.33 1.98 0.66 3 1 C3.62277469 11.00887894 4.17707265 20.96588331 4 31 C3.01 31.33 2.02 31.66 1 32 C0 31 0 31 -0.11352539 28.04077148 C-0.10828857 26.74727783 -0.10305176 25.45378418 -0.09765625 24.12109375 C-0.0962413 23.4344313 -0.09482635 22.74776886 -0.09336853 22.04029846 C-0.08775479 19.83932199 -0.07520007 17.63844591 -0.0625 15.4375 C-0.05748676 13.94856917 -0.05292355 12.45963676 -0.04882812 10.97070312 C-0.03778093 7.31376925 -0.02050713 3.65689442 0 0 Z " fill="#B6B2B2" transform="translate(914,359)"/>
<path d="M0 0 C2.03120707 3.04681061 2.24659875 3.60118324 2.1953125 7.01171875 C2.18886719 7.76904297 2.18242188 8.52636719 2.17578125 9.30664062 C2.15902344 10.09232422 2.14226563 10.87800781 2.125 11.6875 C2.11597656 12.48478516 2.10695313 13.28207031 2.09765625 14.10351562 C2.07411585 16.069139 2.03824547 18.03460775 2 20 C1.34 20.33 0.68 20.66 0 21 C-0.46523063 22.89533342 -0.46523063 22.89533342 -0.625 25.0625 C-0.74875 26.361875 -0.8725 27.66125 -1 29 C-1.33 29 -1.66 29 -2 29 C-2 20.09 -2 11.18 -2 2 C-1.34 2 -0.68 2 0 2 C0 1.34 0 0.68 0 0 Z " fill="#C7C4C2" transform="translate(916,518)"/>
<path d="M0 0 C0 0.33 0 0.66 0 1 C-1.65 1 -3.3 1 -5 1 C-5.33 1.66 -5.66 2.32 -6 3 C-7.85546875 3.74609375 -7.85546875 3.74609375 -10.1875 4.4375 C-14.00634497 5.64954171 -17.54434093 6.92660456 -21 9 C-21.33 9.99 -21.66 10.98 -22 12 C-23.7421875 12.84375 -23.7421875 12.84375 -25.875 13.5 C-29.0791681 14.49317387 -30.69793772 15.58055211 -33 18 C-35.1875 18.6875 -35.1875 18.6875 -37 19 C-35.51303283 14.57901708 -32.14865424 12.89297473 -28.3125 10.6875 C-27.3217749 10.10863037 -27.3217749 10.10863037 -26.31103516 9.51806641 C-21.58336969 6.80264919 -16.77947159 4.2558412 -11.875 1.875 C-11.26052002 1.56780029 -10.64604004 1.26060059 -10.01293945 0.9440918 C-6.28358765 -0.79743785 -3.94285945 -1.2944482 0 0 Z " fill="#122328" transform="translate(469,281)"/>
<path d="M0 0 C3.68743234 -0.05850924 7.3747437 -0.09376673 11.0625 -0.125 C12.10083984 -0.14175781 13.13917969 -0.15851562 14.20898438 -0.17578125 C19.92605641 -0.21208012 24.50469999 0.30518785 30 2 C33.14049846 2.36564844 36.27923968 2.50284328 39.4375 2.625 C40.67790039 2.68300781 40.67790039 2.68300781 41.94335938 2.7421875 C43.96191073 2.83553092 45.98092331 2.91880961 48 3 C48 3.33 48 3.66 48 4 C36.21014908 4.21234145 24.50354258 4.16410702 12.75 3.125 C11.81655762 3.04652832 10.88311523 2.96805664 9.92138672 2.88720703 C9.05529785 2.80325684 8.18920898 2.71930664 7.296875 2.6328125 C6.53729492 2.55949707 5.77771484 2.48618164 4.99511719 2.41064453 C3 2 3 2 0 0 Z " fill="#999F9E" transform="translate(255,908)"/>
<path d="M0 0 C5.15428976 7.73143464 1.4294563 20.37221019 0 29 C-2.47535742 26.52464258 -2.25752375 25.07401999 -2.27734375 21.69140625 C-2.26832031 20.98886719 -2.25929688 20.28632813 -2.25 19.5625 C-2.24613281 18.84835937 -2.24226562 18.13421875 -2.23828125 17.3984375 C-2.14230973 11.45886707 -1.37276073 5.78520591 0 0 Z " fill="#C0BCB9" transform="translate(916,445)"/>
<path d="M0 0 C0.33 0 0.66 0 1 0 C1 5.61 1 11.22 1 17 C0.67 17 0.34 17 0 17 C-0.66 27.23 -1.32 37.46 -2 48 C-2.33 48 -2.66 48 -3 48 C-3.56768559 7.13537118 -3.56768559 7.13537118 0 0 Z " fill="#96A2A4" transform="translate(110,265)"/>
<path d="M0 0 C0.66 0.33 1.32 0.66 2 1 C1.28714844 1.556875 0.57429688 2.11375 -0.16015625 2.6875 C-5.39547083 6.85884082 -10.09591288 10.98074582 -14.36328125 16.13671875 C-16.96924685 19.10341467 -19.94504869 21.5061622 -23 24 C-22.848048 18.98558397 -20.07298671 16.66645254 -16.69140625 13.35546875 C-15 12 -15 12 -13 12 C-13 11.34 -13 10.68 -13 10 C-10.8664718 8.21229093 -8.73155942 6.53127176 -6.5 4.875 C-5.87996094 4.40707031 -5.25992188 3.93914062 -4.62109375 3.45703125 C-3.08497483 2.29903391 -1.54301941 1.14878643 0 0 Z " fill="#79878B" transform="translate(177,151)"/>
<path d="M0 0 C2.375 0.6875 2.375 0.6875 5 2 C5.2784375 2.73734375 5.556875 3.4746875 5.84375 4.234375 C7.29485836 7.70526932 9.4826213 9.97196653 12.125 12.5625 C12.63836914 13.07264648 13.15173828 13.58279297 13.68066406 14.10839844 C20.23101328 20.43460591 27.60904972 25.71003051 35 31 C25.20942406 31 13.81509443 16.81198624 7.125 10.25 C0 2.99024823 0 2.99024823 0 0 Z " fill="#122025" transform="translate(385,689)"/>
<path d="M0 0 C0.66 0 1.32 0 2 0 C3.19921875 1.22265625 3.19921875 1.22265625 4.6875 3.0625 C10.66763621 10.12877206 17.4184 16.500908 24 23 C20.42188369 23 19.73324619 22.13534858 17 20 C16.01 19.67 15.02 19.34 14 19 C14 18.01 14 17.02 14 16 C12.38263741 14.6072711 10.7074998 13.28062485 9 12 C7.64748503 10.68612831 6.31054623 9.35573748 5 8 C2.96731398 5.83656989 2.96731398 5.83656989 0 4 C0 2.68 0 1.36 0 0 Z " fill="#0C313C" transform="translate(571,722)"/>
<path d="M0 0 C0.33 0 0.66 0 1 0 C1 7.92 1 15.84 1 24 C0.01 24 -0.98 24 -2 24 C-2.33 24.99 -2.66 25.98 -3 27 C-3.05380578 24.20807795 -3.09357669 21.4171859 -3.125 18.625 C-3.14175781 17.8309375 -3.15851562 17.036875 -3.17578125 16.21875 C-3.19335473 14.14507985 -3.10335168 12.07116759 -3 10 C-2.34 9.34 -1.68 8.68 -1 8 C-0.54188325 6.02764667 -0.54188325 6.02764667 -0.375 3.875 C-0.25125 2.59625 -0.1275 1.3175 0 0 Z " fill="#AFACAA" transform="translate(917,596)"/>
<path d="M0 0 C0.66 0 1.32 0 2 0 C2 8.58 2 17.16 2 26 C1.01 25.67 0.02 25.34 -1 25 C-1.15392039 16.61988971 -0.68271293 8.35104207 0 0 Z " fill="#CFCFCD" transform="translate(916,495)"/>
<path d="M0 0 C0.66 0.33 1.32 0.66 2 1 C2.19148936 20.34042553 2.19148936 20.34042553 1 30 C-3.72460208 21.87667232 -0.68514156 9.06589096 0 0 Z " fill="#BCBDBC" transform="translate(916,329)"/>
<path d="M0 0 C-3.68734758 2.45823172 -6.69699971 3.01242616 -11 4 C-10.67 4.66 -10.34 5.32 -10 6 C-14.72314313 6.77112541 -19.21521178 7.09764874 -24 7 C-23 5 -23 5 -21.31347656 4.31396484 C-20.59643555 4.11496582 -19.87939453 3.9159668 -19.140625 3.7109375 C-18.35429687 3.49179688 -17.56796875 3.27265625 -16.7578125 3.046875 C-15.93023437 2.82515625 -15.10265625 2.6034375 -14.25 2.375 C-13.43789062 2.14554687 -12.62578125 1.91609375 -11.7890625 1.6796875 C-7.78319028 0.58361823 -4.19417382 -0.32394025 0 0 Z " fill="#84979A" transform="translate(241,125)"/>
<path d="M0 0 C0.66 0 1.32 0 2 0 C1.67 0.70125 1.34 1.4025 1 2.125 C-0.09295056 5.26723285 -0.07335281 7.69912374 0 11 C-0.33 11.66 -0.66 12.32 -1 13 C-1.99 12.67 -2.98 12.34 -4 12 C-5.65 15.3 -7.3 18.6 -9 22 C-10 19 -10 19 -8.41796875 15.56640625 C-7.68462999 14.22616645 -6.94066916 12.891697 -6.1875 11.5625 C-5.45155933 10.23061436 -4.71587485 8.89858713 -3.98046875 7.56640625 C-3.63419434 6.94652832 -3.28791992 6.32665039 -2.93115234 5.68798828 C-1.89941103 3.81765283 -0.92958972 1.92311947 0 0 Z " fill="#7D9296" transform="translate(135,195)"/>
<path d="M0 0 C0.66 0.66 1.32 1.32 2 2 C1.34 2 0.68 2 0 2 C0 1.34 0 0.68 0 0 Z M0 3 C-5.75 6 -5.75 6 -8 6 C-8 6.66 -8 7.32 -8 8 C-10.12124966 8.86343824 -12.24713072 9.71550648 -14.375 10.5625 C-16.15003906 11.27599609 -16.15003906 11.27599609 -17.9609375 12.00390625 C-21 13 -21 13 -23 12 C-19.92725154 10.29266954 -16.84034212 8.61274352 -13.75 6.9375 C-12.87730469 6.45216797 -12.00460937 5.96683594 -11.10546875 5.46679688 C-10.26113281 5.01240234 -9.41679688 4.55800781 -8.546875 4.08984375 C-7.77182617 3.66566162 -6.99677734 3.24147949 -6.19824219 2.80444336 C-3.66134523 1.87606981 -2.49749524 2.08209587 0 3 Z " fill="#19282D" transform="translate(597,777)"/>
<path d="M0 0 C0.66 0 1.32 0 2 0 C2 4.62 2 9.24 2 14 C0.68 14.33 -0.64 14.66 -2 15 C-1.85973717 12.68715544 -1.71264442 10.37472409 -1.5625 8.0625 C-1.48128906 6.77472656 -1.40007813 5.48695313 -1.31640625 4.16015625 C-1 1 -1 1 0 0 Z " fill="#AFACAA" transform="translate(916,538)"/>
<path d="M0 0 C1.78617716 3.08651414 2.32076145 5.44195132 2.375 9 C2.40335938 9.845625 2.43171875 10.69125 2.4609375 11.5625 C1.85879811 14.74669474 0.4194612 15.93437304 -2 18 C-2.054138 15.75026553 -2.09285491 13.50015617 -2.125 11.25 C-2.14820313 9.99703125 -2.17140625 8.7440625 -2.1953125 7.453125 C-2.01537302 4.27179508 -1.68998582 2.63478104 0 0 Z " fill="#CCC8C5" transform="translate(916,386)"/>
<path d="M0 0 C0.66 0 1.32 0 2 0 C0.53407266 4.64210324 -1.2635479 9.07235701 -3.1953125 13.53515625 C-4.05402276 16.16547747 -4.14696502 18.25175406 -4 21 C-4.66 21 -5.32 21 -6 21 C-6.33 22.65 -6.66 24.3 -7 26 C-7.33 26 -7.66 26 -8 26 C-7.46778631 20.07912269 -6.19145675 15.13465306 -4 9.625 C-3.59007812 8.55958984 -3.59007812 8.55958984 -3.171875 7.47265625 C-2.19107599 4.93892546 -1.21577159 2.43154319 0 0 Z " fill="#132023" transform="translate(394,343)"/>
<path d="M0 0 C4.30109314 3.55307694 8.41553722 7.25750806 12.4375 11.125 C13.30246094 11.95257812 14.16742187 12.78015625 15.05859375 13.6328125 C17 16 17 16 17 20 C16.34 20 15.68 20 15 20 C14.95875 19.443125 14.9175 18.88625 14.875 18.3125 C13.78411762 15.4294537 12.01734666 14.21895583 9.625 12.3671875 C7.9405728 10.95000116 6.62738312 9.46353019 5.25 7.75 C3.29368116 4.97640062 3.29368116 4.97640062 1 4 C1 3.34 1 2.68 1 2 C0.34 1.67 -0.32 1.34 -1 1 C-0.67 0.67 -0.34 0.34 0 0 Z " fill="#0F2C38" transform="translate(620,771)"/>
<path d="M0 0 C0.84755859 0.00966797 1.69511719 0.01933594 2.56835938 0.02929688 C3.44943359 0.05443359 4.33050781 0.07957031 5.23828125 0.10546875 C6.13095703 0.11900391 7.02363281 0.13253906 7.94335938 0.14648438 C10.14644291 0.18182796 12.34830707 0.23116382 14.55078125 0.29296875 C7.64742198 3.9608443 0.17561407 3.41706187 -7.44921875 3.29296875 C-5.08036651 0.42052834 -3.69085058 -0.07431243 0 0 Z " fill="#7A8181" transform="translate(759.44921875,906.70703125)"/>
<path d="M0 0 C4.0993999 6.14909985 3.11627335 13.85564843 3 21 C0.36253137 18.42483378 -0.21887499 16.45668604 -0.29296875 12.890625 C-0.27313353 11.34347769 -0.2375101 9.79646604 -0.1875 8.25 C-0.17396484 7.45722656 -0.16042969 6.66445313 -0.14648438 5.84765625 C-0.11125223 3.89814436 -0.05744821 1.94898374 0 0 Z " fill="#D5D0CC" transform="translate(914,696)"/>
<path d="M0 0 C2.30143236 3.45214853 2.13833854 4.23479324 1.625 8.1875 C1.51414062 9.08855469 1.40328125 9.98960937 1.2890625 10.91796875 C1.19367187 11.60503906 1.09828125 12.29210937 1 13 C0.67 13 0.34 13 0 13 C-0.33 14.65 -0.66 16.3 -1 18 C-1.33 18 -1.66 18 -2 18 C-2 12.72 -2 7.44 -2 2 C-1.34 2 -0.68 2 0 2 C0 1.34 0 0.68 0 0 Z " fill="#BBB6B3" transform="translate(916,518)"/>
<path d="M0 0 C0.66 0.33 1.32 0.66 2 1 C-0.7806901 4.60459828 -3.74160736 7.82306718 -7 11 C-8.1446875 12.1446875 -8.1446875 12.1446875 -9.3125 13.3125 C-9.869375 13.869375 -10.42625 14.42625 -11 15 C-11.99 14.67 -12.98 14.34 -14 14 C-9.38 9.38 -4.76 4.76 0 0 Z " fill="#E9EBE8" transform="translate(381,262)"/>
<path d="M0 0 C2.07606481 6.22819442 -2.03140149 12.41093838 -4.78125 17.9609375 C-6 20 -6 20 -8 21 C-7.33333333 19 -6.66666667 17 -6 15 C-5.77054688 14.27683594 -5.54109375 13.55367187 -5.3046875 12.80859375 C-3.86163391 8.31993759 -2.244579 4.16850386 0 0 Z " fill="#677070" transform="translate(897,810)"/>
<path d="M0 0 C0.66 0.33 1.32 0.66 2 1 C1 3 1 3 -1.4375 3.9375 C-4.29863959 4.84547289 -4.29863959 4.84547289 -6 8 C-6.66 8 -7.32 8 -8 8 C-8.33 8.66 -8.66 9.32 -9 10 C-9.66 9.67 -10.32 9.34 -11 9 C-11.99 9.33 -12.98 9.66 -14 10 C-14 9.34 -14 8.68 -14 8 C-11.7136988 6.63597957 -9.42178251 5.28365726 -7.125 3.9375 C-6.47402344 3.54755859 -5.82304688 3.15761719 -5.15234375 2.75585938 C-3.46934275 1.77555467 -1.73703801 0.88101568 0 0 Z " fill="#0F1E24" transform="translate(680,327)"/>
<path d="M0 0 C0.66 0.33 1.32 0.66 2 1 C0.9171875 2.03060547 0.9171875 2.03060547 -0.1875 3.08203125 C-1.115625 3.98308594 -2.04375 4.88414062 -3 5.8125 C-3.928125 6.70582031 -4.85625 7.59914063 -5.8125 8.51953125 C-8.33071315 10.82379728 -8.33071315 10.82379728 -8 14 C-9.98 14.99 -11.96 15.98 -14 17 C-10.9644742 10.28595525 -5.23214891 5.07359894 0 0 Z " fill="#101B1F" transform="translate(423,305)"/>
<path d="M0 0 C0.33 0.99 0.66 1.98 1 3 C0.01 4.485 0.01 4.485 -1 6 C-1.66 6 -2.32 6 -3 6 C-3.144375 6.61875 -3.28875 7.2375 -3.4375 7.875 C-4 10 -4 10 -5 12 C-5.66 12 -6.32 12 -7 12 C-7.33 12.99 -7.66 13.98 -8 15 C-9 13 -9 13 -8.25 10.4375 C-7 8 -7 8 -4 7 C-4 6.01 -4 5.02 -4 4 C-2 1.8125 -2 1.8125 0 0 Z " fill="#6F7779" transform="translate(888,831)"/>
<path d="M0 0 C0.33 0 0.66 0 1 0 C1 5.61 1 11.22 1 17 C0.67 16.34 0.34 15.68 0 15 C-0.66 15 -1.32 15 -2 15 C-2.21755666 9.5610835 -2.10428384 5.12919186 0 0 Z " fill="#DCD9D8" transform="translate(917,665)"/>
<path d="M0 0 C0.33 0.66 0.66 1.32 1 2 C0.37915039 3.78759766 0.37915039 3.78759766 -0.65234375 5.9140625 C-1.01650391 6.67460937 -1.38066406 7.43515625 -1.75585938 8.21875 C-2.14580078 9.0128125 -2.53574219 9.806875 -2.9375 10.625 C-3.32357422 11.42679688 -3.70964844 12.22859375 -4.10742188 13.0546875 C-5.06461573 15.03997846 -6.02903475 17.02141737 -7 19 C-8.1832439 15.45026831 -7.90010116 13.60040463 -7 10 C-5.6875 8.5625 -5.6875 8.5625 -4 7 C-2.5684768 4.71368238 -1.29579682 2.36818039 0 0 Z " fill="#172E35" transform="translate(131,206)"/>
<path d="M0 0 C6.51819877 1.89536276 12.17814801 4.5178994 18 8 C14.83170302 9.05609899 14.01480825 9.13055309 11 8 C10.5875 7.525625 10.175 7.05125 9.75 6.5625 C6.92953427 4.04422702 3.6600948 3.7800202 0 3 C0 2.01 0 1.02 0 0 Z " fill="#818D90" transform="translate(815,136)"/>
<path d="M0 0 C1 3 1 3 0.25 5.125 C-1 7 -1 7 -4 8 C-4.804375 8.804375 -5.60875 9.60875 -6.4375 10.4375 C-8.69939394 12.69939394 -10.17586333 13.71085056 -13 15 C-8.70214922 9.96836982 -4.36574458 4.97281557 0 0 Z " fill="#282831" transform="translate(814,721)"/>
<path d="M0 0 C6.57534861 0.62031591 12.66692592 2.14897283 19 4 C19 4.33 19 4.66 19 5 C12.79223894 5.33860515 7.70351973 4.57960021 2 2 C1.34 1.34 0.68 0.68 0 0 Z " fill="#0C181C" transform="translate(441,797)"/>
<path d="M0 0 C0.99 0.495 0.99 0.495 2 1 C3.41904116 5.54093172 3.09226843 10.2943099 3 15 C1.51171875 13.88671875 1.51171875 13.88671875 0 12 C-0.29296875 9.08203125 -0.29296875 9.08203125 -0.1875 5.8125 C-0.16042969 4.72582031 -0.13335938 3.63914062 -0.10546875 2.51953125 C-0.07066406 1.68808594 -0.03585937 0.85664062 0 0 Z " fill="#D6D2D0" transform="translate(915,681)"/>
<path d="M0 0 C0.33 0 0.66 0 1 0 C1 5.61 1 11.22 1 17 C0.01 16.67 -0.98 16.34 -2 16 C-1.85936865 13.70800823 -1.71234057 11.41640814 -1.5625 9.125 C-1.48128906 7.84882813 -1.40007812 6.57265625 -1.31640625 5.2578125 C-1 2 -1 2 0 0 Z " fill="#6A787B" transform="translate(110,265)"/>
<path d="M0 0 C0.99 0.33 1.98 0.66 3 1 C4.2063366 6.22745859 3.75612577 10.76528314 3 16 C2.67 16 2.34 16 2 16 C0.80911014 10.61972975 -0.2919519 5.54708616 0 0 Z " fill="#B0ABAA" transform="translate(914,690)"/>
<path d="M0 0 C4.06498881 1.37184347 6.67396561 3.22068459 9.8125 6.125 C10.99779297 7.21167969 10.99779297 7.21167969 12.20703125 8.3203125 C12.79871094 8.87460937 13.39039063 9.42890625 14 10 C10.41954683 10 9.70316905 9.19632485 7 7 C6.01 6.34 5.02 5.68 4 5 C2.63360658 3.3603279 1.29486821 1.69672386 0 0 Z " fill="#132125" transform="translate(589,297)"/>
<path d="M0 0 C1.65 0 3.3 0 5 0 C2.62905707 2.65171248 0.16431913 4.1490052 -3 5.75 C-4.299375 6.42289063 -4.299375 6.42289063 -5.625 7.109375 C-8 8 -8 8 -11 7 C-10.28972656 6.66226563 -9.57945312 6.32453125 -8.84765625 5.9765625 C-7.92855469 5.53054688 -7.00945313 5.08453125 -6.0625 4.625 C-4.68771484 3.96371094 -4.68771484 3.96371094 -3.28515625 3.2890625 C-0.87096198 2.20800838 -0.87096198 2.20800838 0 0 Z " fill="#838688" transform="translate(827,887)"/>
<path d="M0 0 C0.66 0.33 1.32 0.66 2 1 C-0.3125 3.5 -0.3125 3.5 -3 6 C-3.99 6 -4.98 6 -6 6 C-6.99 6.33 -7.98 6.66 -9 7 C-9 6.34 -9 5.68 -9 5 C-7.54735962 4.1361871 -6.0876837 3.28419546 -4.625 2.4375 C-3.40683594 1.72400391 -3.40683594 1.72400391 -2.1640625 0.99609375 C-1.44992187 0.66738281 -0.73578125 0.33867187 0 0 Z " fill="#0E2227" transform="translate(658,340)"/>
<path d="M0 0 C7.48291572 6.15034169 7.48291572 6.15034169 10 10 C7.625 9.75 7.625 9.75 5 9 C3.9375 7.125 3.9375 7.125 3 5 C0.96682993 3.26574227 0.96682993 3.26574227 -1 2 C-0.67 1.34 -0.34 0.68 0 0 Z " fill="#112D39" transform="translate(607,758)"/>
<path d="M0 0 C1.485 0.99 1.485 0.99 3 2 C4.65549531 2.38499891 6.3222433 2.72793135 8 3 C7.34 4.32 6.68 5.64 6 7 C3.00675737 5.9024777 2.15389099 5.32317108 0.75 2.375 C0.5025 1.59125 0.255 0.8075 0 0 Z " fill="#EFEDEA" transform="translate(599,534)"/>
<path d="M0 0 C4.24846075 0.47205119 6.26819288 2.88877522 9 6 C9 6.66 9 7.32 9 8 C9.99 8.33 10.98 8.66 12 9 C11.34 9.66 10.68 10.32 10 11 C9.52949219 10.45730469 9.05898438 9.91460937 8.57421875 9.35546875 C7.95160156 8.64003906 7.32898438 7.92460937 6.6875 7.1875 C6.07261719 6.47980469 5.45773437 5.77210938 4.82421875 5.04296875 C3.26665665 3.29863261 1.67341125 1.63221959 0 0 Z " fill="#E1E3E0" transform="translate(603,307)"/>
<path d="M0 0 C3.03852705 1.40976705 5.5939595 3.08870228 8.25 5.125 C8.95640625 5.66382813 9.6628125 6.20265625 10.390625 6.7578125 C10.92171875 7.16773438 11.4528125 7.57765625 12 8 C11.34 8.66 10.68 9.32 10 10 C8.33037631 8.52417192 6.6643694 7.04425109 5 5.5625 C4.071875 4.73878906 3.14375 3.91507812 2.1875 3.06640625 C1.465625 2.38449219 0.74375 1.70257813 0 1 C0 0.67 0 0.34 0 0 Z " fill="#EBECEA" transform="translate(592,297)"/>
<path d="M0 0 C2.93200474 2.85276137 5.64315404 5.65079784 8 9 C7.67 9.66 7.34 10.32 7 11 C3.48918731 8.7764853 2.27741218 6.93049901 1 3 C0.67 2.01 0.34 1.02 0 0 Z " fill="#A6ADAF" transform="translate(877,184)"/>
<path d="M0 0 C0.99 0 1.98 0 3 0 C3 0.66 3 1.32 3 2 C3.928125 2.1546875 3.928125 2.1546875 4.875 2.3125 C7 3 7 3 9 6 C5.37 5.01 1.74 4.02 -2 3 C-1.34 2.01 -0.68 1.02 0 0 Z " fill="#7E8E90" transform="translate(836,147)"/>
<path d="M0 0 C9.41002278 -0.18451025 9.41002278 -0.18451025 14 1 C14 1.33 14 1.66 14 2 C10.37 2.33 6.74 2.66 3 3 C3 2.34 3 1.68 3 1 C2.01 0.67 1.02 0.34 0 0 Z " fill="#A9B4B7" transform="translate(753,121)"/>
<path d="M0 0 C1.9375 1.0625 1.9375 1.0625 4 3 C4.75 6.6875 4.75 6.6875 5 10 C4.34 10 3.68 10 3 10 C1.68 7.03 0.36 4.06 -1 1 C-0.67 0.67 -0.34 0.34 0 0 Z " fill="#10303B" transform="translate(814,608)"/>
<path d="M0 0 C0.66 0.33 1.32 0.66 2 1 C1.67 2.98 1.34 4.96 1 7 C0.01 7 -0.98 7 -2 7 C-2.125 4.625 -2.125 4.625 -2 2 C-1.34 1.34 -0.68 0.68 0 0 Z " fill="#E3DEDC" transform="translate(916,313)"/>
<path d="M0 0 C0.33 0 0.66 0 1 0 C1 1.65 1 3.3 1 5 C1.66 5 2.32 5 3 5 C2.625 7.4375 2.625 7.4375 2 10 C1.01 10.495 1.01 10.495 0 11 C0 7.37 0 3.74 0 0 Z " fill="#CBC3C1" transform="translate(914,304)"/>
<path d="M0 0 C0.99 0 1.98 0 3 0 C2 2 1 4 0 6 C-1.32 5.67 -2.64 5.34 -4 5 C-2.1875 2.5 -2.1875 2.5 0 0 Z " fill="#E7E7E2" transform="translate(359,286)"/>
<path d="M0 0 C0.33 0 0.66 0 1 0 C0.25 7.625 0.25 7.625 -2 11 C-2.28571429 3.57142857 -2.28571429 3.57142857 0 0 Z " fill="#C2BBBC" transform="translate(910,774)"/>
<path d="M0 0 C3.53600465 1.91135386 5.78972846 3.62642766 8 7 C5 7 5 7 3.3125 5.625 C2 4 2 4 2 2 C1.34 2 0.68 2 0 2 C0 1.34 0 0.68 0 0 Z " fill="#243438" transform="translate(603,308)"/>
<path d="M0 0 C0.66 0.33 1.32 0.66 2 1 C-3.14285714 6.57142857 -3.14285714 6.57142857 -7 7 C-5.55609075 3.19333016 -3.65047197 1.73397418 0 0 Z " fill="#102024" transform="translate(439,293)"/>
<path d="M0 0 C0.33 0.99 0.66 1.98 1 3 C-1.8125 3.625 -1.8125 3.625 -5 4 C-5.99 3.34 -6.98 2.68 -8 2 C-5.09399739 0.74335022 -3.20395416 0 0 0 Z " fill="#153E46" transform="translate(462,216)"/>
<path d="M0 0 C-3.63423209 2.32590854 -6.77088331 2.16265833 -11 2 C-6.98764085 -0.6749061 -4.6342454 -1.48957888 0 0 Z " fill="#DFE1DE" transform="translate(543,739)"/>
<path d="M0 0 C0.66 0.33 1.32 0.66 2 1 C2 1.99 2 2.98 2 4 C0 5.6875 0 5.6875 -2 7 C-2.33 6.34 -2.66 5.68 -3 5 C-2.67 4.34 -2.34 3.68 -2 3 C-1.34 3 -0.68 3 0 3 C0 2.01 0 1.02 0 0 Z " fill="#20363E" transform="translate(591,584)"/>
<path d="M0 0 C0.33 0.99 0.66 1.98 1 3 C0 5 0 5 -3.0625 6.125 C-4.031875 6.41375 -5.00125 6.7025 -6 7 C-4.02 4.69 -2.04 2.38 0 0 Z " fill="#CB3D2C" transform="translate(630,549)"/>
<path d="M0 0 C0.66 0 1.32 0 2 0 C1.01 3.3 0.02 6.6 -1 10 C-1.33 10 -1.66 10 -2 10 C-1.85950482 8.52031676 -1.71245174 7.04125484 -1.5625 5.5625 C-1.48128906 4.73878906 -1.40007812 3.91507812 -1.31640625 3.06640625 C-1 1 -1 1 0 0 Z " fill="#E6E8E5" transform="translate(390,348)"/>
<path d="M0 0 C-0.33 0.66 -0.66 1.32 -1 2 C-1.66 2 -2.32 2 -3 2 C-3.33 2.66 -3.66 3.32 -4 4 C-4.66 3.67 -5.32 3.34 -6 3 C-6.99 3.33 -7.98 3.66 -9 4 C-9 3.34 -9 2.68 -9 2 C-5.5647952 -0.29013653 -4.014669 -0.17842973 0 0 Z " fill="#122E33" transform="translate(675,333)"/>
<path d="M0 0 C-1.15173355 2.46800047 -2.04783565 4.04783565 -4 6 C-4.99 5.67 -5.98 5.34 -7 5 C-2.25 0 -2.25 0 0 0 Z " fill="#DEE2DE" transform="translate(374,271)"/>
<path d="M0 0 C0.33 0.99 0.66 1.98 1 3 C-1.31 4.65 -3.62 6.3 -6 8 C-4.73058503 4.08597051 -3.48832306 2.20927127 0 0 Z " fill="#939FA1" transform="translate(153,173)"/>
</svg>
